<svg width="100%" height="120" viewBox="0 0 1280 120" fill="none" xmlns="http://www.w3.org/2000/svg">
<path d="M603.023 29.4205C602.963 28.8826 602.713 28.4659 602.273 28.1705C601.834 27.8712 601.281 27.7216 600.614 27.7216C600.137 27.7216 599.724 27.7973 599.376 27.9489C599.027 28.0966 598.756 28.3011 598.563 28.5625C598.374 28.8201 598.279 29.1136 598.279 29.4432C598.279 29.7197 598.344 29.9583 598.472 30.1591C598.605 30.3598 598.777 30.5284 598.989 30.6648C599.205 30.7973 599.436 30.9091 599.683 31C599.929 31.0871 600.165 31.1591 600.393 31.2159L601.529 31.5114C601.9 31.6023 602.281 31.7254 602.671 31.8807C603.061 32.036 603.423 32.2405 603.756 32.4943C604.09 32.7481 604.359 33.0625 604.563 33.4375C604.772 33.8125 604.876 34.2614 604.876 34.7841C604.876 35.4432 604.705 36.0284 604.364 36.5398C604.027 37.0511 603.537 37.4545 602.893 37.75C602.253 38.0455 601.478 38.1932 600.569 38.1932C599.698 38.1932 598.944 38.0549 598.308 37.7784C597.671 37.5019 597.173 37.1098 596.813 36.6023C596.453 36.0909 596.254 35.4848 596.217 34.7841H597.978C598.012 35.2045 598.148 35.5549 598.387 35.8352C598.629 36.1117 598.938 36.3182 599.313 36.4545C599.692 36.5871 600.107 36.6534 600.558 36.6534C601.054 36.6534 601.495 36.5758 601.881 36.4205C602.272 36.2614 602.578 36.0417 602.802 35.7614C603.025 35.4773 603.137 35.1458 603.137 34.767C603.137 34.4223 603.039 34.1402 602.842 33.9205C602.648 33.7008 602.385 33.5189 602.052 33.375C601.722 33.2311 601.349 33.1042 600.933 32.9943L599.558 32.6193C598.626 32.3655 597.887 31.9924 597.342 31.5C596.8 31.0076 596.529 30.3561 596.529 29.5455C596.529 28.875 596.711 28.2898 597.075 27.7898C597.438 27.2898 597.931 26.9015 598.552 26.625C599.173 26.3447 599.874 26.2045 600.654 26.2045C601.442 26.2045 602.137 26.3428 602.739 26.6193C603.345 26.8958 603.823 27.2765 604.171 27.7614C604.52 28.2424 604.701 28.7955 604.717 29.4205H603.023ZM610.513 38.1761C609.669 38.1761 608.942 37.9848 608.332 37.6023C607.726 37.2159 607.26 36.6837 606.934 36.0057C606.608 35.3277 606.445 34.5511 606.445 33.6761C606.445 32.7898 606.612 32.0076 606.945 31.3295C607.279 30.6477 607.748 30.1155 608.354 29.733C608.96 29.3504 609.674 29.1591 610.496 29.1591C611.159 29.1591 611.75 29.2822 612.269 29.5284C612.788 29.7708 613.207 30.1117 613.525 30.5511C613.847 30.9905 614.038 31.5038 614.099 32.0909H612.445C612.354 31.6818 612.146 31.3295 611.82 31.0341C611.498 30.7386 611.067 30.5909 610.525 30.5909C610.051 30.5909 609.637 30.7159 609.281 30.9659C608.928 31.2121 608.654 31.5644 608.457 32.0227C608.26 32.4773 608.161 33.0152 608.161 33.6364C608.161 34.2727 608.258 34.822 608.451 35.2841C608.644 35.7462 608.917 36.1042 609.269 36.358C609.625 36.6117 610.044 36.7386 610.525 36.7386C610.847 36.7386 611.138 36.6799 611.4 36.5625C611.665 36.4413 611.887 36.2689 612.065 36.0455C612.246 35.822 612.373 35.553 612.445 35.2386H614.099C614.038 35.803 613.854 36.3068 613.548 36.75C613.241 37.1932 612.83 37.5417 612.315 37.7955C611.803 38.0492 611.203 38.1761 610.513 38.1761ZM615.915 38V29.2727H617.558V30.6591H617.648C617.808 30.1894 618.088 29.8201 618.489 29.5511C618.895 29.2784 619.353 29.142 619.864 29.142C619.97 29.142 620.095 29.1458 620.239 29.1534C620.387 29.161 620.503 29.1705 620.586 29.1818V30.8068C620.518 30.7879 620.397 30.767 620.222 30.7443C620.048 30.7178 619.874 30.7045 619.7 30.7045C619.298 30.7045 618.94 30.7898 618.626 30.9602C618.315 31.1269 618.069 31.3598 617.887 31.6591C617.705 31.9545 617.614 32.2917 617.614 32.6705V38H615.915ZM625.42 38.1761C624.602 38.1761 623.888 37.9886 623.278 37.6136C622.668 37.2386 622.194 36.714 621.857 36.0398C621.52 35.3655 621.352 34.5777 621.352 33.6761C621.352 32.7708 621.52 31.9792 621.857 31.3011C622.194 30.6231 622.668 30.0966 623.278 29.7216C623.888 29.3466 624.602 29.1591 625.42 29.1591C626.238 29.1591 626.952 29.3466 627.562 29.7216C628.172 30.0966 628.645 30.6231 628.982 31.3011C629.319 31.9792 629.488 32.7708 629.488 33.6761C629.488 34.5777 629.319 35.3655 628.982 36.0398C628.645 36.714 628.172 37.2386 627.562 37.6136C626.952 37.9886 626.238 38.1761 625.42 38.1761ZM625.425 36.75C625.956 36.75 626.395 36.6098 626.744 36.3295C627.092 36.0492 627.35 35.6761 627.516 35.2102C627.687 34.7443 627.772 34.2311 627.772 33.6705C627.772 33.1136 627.687 32.6023 627.516 32.1364C627.35 31.6667 627.092 31.2898 626.744 31.0057C626.395 30.7216 625.956 30.5795 625.425 30.5795C624.891 30.5795 624.448 30.7216 624.096 31.0057C623.747 31.2898 623.488 31.6667 623.317 32.1364C623.151 32.6023 623.067 33.1136 623.067 33.6705C623.067 34.2311 623.151 34.7443 623.317 35.2102C623.488 35.6761 623.747 36.0492 624.096 36.3295C624.448 36.6098 624.891 36.75 625.425 36.75ZM633.083 26.3636V38H631.384V26.3636H633.083ZM637.067 26.3636V38H635.369V26.3636H637.067ZM646.854 38.1705C646.15 38.1705 645.521 37.9905 644.968 37.6307C644.419 37.267 643.987 36.75 643.673 36.0795C643.362 35.4053 643.207 34.5966 643.207 33.6534C643.207 32.7102 643.364 31.9034 643.678 31.233C643.996 30.5625 644.432 30.0492 644.985 29.6932C645.538 29.3371 646.165 29.1591 646.866 29.1591C647.407 29.1591 647.843 29.25 648.173 29.4318C648.506 29.6098 648.763 29.8182 648.945 30.0568C649.131 30.2955 649.275 30.5057 649.377 30.6875H649.479V26.3636H651.178V38H649.519V36.642H649.377C649.275 36.8277 649.127 37.0398 648.934 37.2784C648.745 37.517 648.483 37.7254 648.15 37.9034C647.817 38.0814 647.385 38.1705 646.854 38.1705ZM647.229 36.7216C647.718 36.7216 648.131 36.5928 648.468 36.3352C648.809 36.0739 649.067 35.7121 649.241 35.25C649.419 34.7879 649.508 34.25 649.508 33.6364C649.508 33.0303 649.421 32.5 649.246 32.0455C649.072 31.5909 648.817 31.2367 648.479 30.983C648.142 30.7292 647.726 30.6023 647.229 30.6023C646.718 30.6023 646.292 30.7348 645.951 31C645.61 31.2652 645.353 31.6269 645.178 32.0852C645.008 32.5436 644.923 33.0606 644.923 33.6364C644.923 34.2197 645.01 34.7443 645.184 35.2102C645.358 35.6761 645.616 36.0455 645.957 36.3182C646.301 36.5871 646.726 36.7216 647.229 36.7216ZM657.279 38.1761C656.461 38.1761 655.747 37.9886 655.137 37.6136C654.527 37.2386 654.054 36.714 653.717 36.0398C653.379 35.3655 653.211 34.5777 653.211 33.6761C653.211 32.7708 653.379 31.9792 653.717 31.3011C654.054 30.6231 654.527 30.0966 655.137 29.7216C655.747 29.3466 656.461 29.1591 657.279 29.1591C658.097 29.1591 658.811 29.3466 659.421 29.7216C660.031 30.0966 660.504 30.6231 660.842 31.3011C661.179 31.9792 661.347 32.7708 661.347 33.6761C661.347 34.5777 661.179 35.3655 660.842 36.0398C660.504 36.714 660.031 37.2386 659.421 37.6136C658.811 37.9886 658.097 38.1761 657.279 38.1761ZM657.285 36.75C657.815 36.75 658.254 36.6098 658.603 36.3295C658.951 36.0492 659.209 35.6761 659.376 35.2102C659.546 34.7443 659.631 34.2311 659.631 33.6705C659.631 33.1136 659.546 32.6023 659.376 32.1364C659.209 31.6667 658.951 31.2898 658.603 31.0057C658.254 30.7216 657.815 30.5795 657.285 30.5795C656.751 30.5795 656.308 30.7216 655.955 31.0057C655.607 31.2898 655.347 31.6667 655.177 32.1364C655.01 32.6023 654.927 33.1136 654.927 33.6705C654.927 34.2311 655.01 34.7443 655.177 35.2102C655.347 35.6761 655.607 36.0492 655.955 36.3295C656.308 36.6098 656.751 36.75 657.285 36.75ZM664.87 38L662.302 29.2727H664.058L665.768 35.6818H665.853L667.569 29.2727H669.325L671.029 35.6534H671.114L672.813 29.2727H674.569L672.006 38H670.273L668.501 31.6989H668.37L666.597 38H664.87ZM677.88 32.8182V38H676.181V29.2727H677.812V30.6932H677.92C678.121 30.2311 678.435 29.8598 678.863 29.5795C679.295 29.2992 679.838 29.1591 680.494 29.1591C681.088 29.1591 681.609 29.2841 682.056 29.5341C682.503 29.7803 682.85 30.1477 683.096 30.6364C683.342 31.125 683.465 31.7292 683.465 32.4489V38H681.766V32.6534C681.766 32.0208 681.602 31.5265 681.272 31.1705C680.942 30.8106 680.49 30.6307 679.914 30.6307C679.52 30.6307 679.17 30.7159 678.863 30.8864C678.56 31.0568 678.319 31.3068 678.141 31.6364C677.967 31.9621 677.88 32.3561 677.88 32.8182Z" fill="#727588"/>
<path d="M647.28 68.9696C647.14 68.829 646.949 68.75 646.75 68.75C646.551 68.75 646.36 68.829 646.22 68.9696L640.75 74.4394V59.75C640.75 59.5511 640.671 59.3603 640.53 59.2197C640.39 59.079 640.199 59 640 59C639.801 59 639.61 59.079 639.47 59.2197C639.329 59.3603 639.25 59.5511 639.25 59.75V74.4394L633.78 68.9696C633.64 68.829 633.449 68.75 633.25 68.75C633.051 68.75 632.86 68.829 632.72 68.9697C632.579 69.1103 632.5 69.3011 632.5 69.5C632.5 69.6989 632.579 69.8897 632.72 70.0304L639.47 76.7804C639.472 76.7828 639.475 76.7848 639.477 76.7872C639.492 76.802 639.508 76.8164 639.524 76.8299C639.534 76.8374 639.543 76.844 639.553 76.851C639.563 76.8586 639.573 76.8665 639.583 76.8736C639.594 76.8809 639.606 76.8873 639.617 76.8939C639.627 76.8998 639.636 76.9059 639.646 76.9114C639.658 76.9174 639.669 76.9225 639.681 76.9279C639.692 76.933 639.702 76.9383 639.713 76.9429C639.724 76.9475 639.735 76.9512 639.747 76.9552C639.759 76.9594 639.77 76.964 639.782 76.9676C639.794 76.971 639.805 76.9735 639.816 76.9764C639.829 76.9795 639.841 76.983 639.853 76.9855C639.867 76.9881 639.88 76.9896 639.893 76.9915C639.904 76.9931 639.915 76.9952 639.926 76.9963C639.951 76.9987 639.975 77 640 77C640.025 77 640.049 76.9987 640.074 76.9963C640.085 76.9952 640.096 76.9931 640.107 76.9915C640.12 76.9896 640.133 76.9881 640.147 76.9855C640.159 76.983 640.171 76.9795 640.184 76.9764C640.195 76.9735 640.207 76.971 640.218 76.9676C640.23 76.964 640.242 76.9594 640.253 76.9552C640.265 76.9512 640.276 76.9475 640.287 76.9429C640.298 76.9383 640.309 76.933 640.319 76.9279C640.331 76.9225 640.342 76.9174 640.354 76.9114C640.364 76.9059 640.373 76.8998 640.383 76.8939C640.394 76.8873 640.406 76.8809 640.417 76.8736C640.427 76.8665 640.437 76.8586 640.447 76.851C640.457 76.844 640.466 76.8374 640.476 76.8299C640.492 76.8162 640.508 76.8016 640.524 76.7865C640.526 76.7843 640.528 76.7825 640.53 76.7804L647.28 70.0304C647.35 69.9607 647.405 69.878 647.443 69.787C647.481 69.696 647.5 69.5985 647.5 69.5C647.5 69.4015 647.481 69.304 647.443 69.213C647.405 69.122 647.35 69.0393 647.28 68.9696Z" fill="#727588"/>
</svg>
